<svg width="20" height="20" viewBox="0 0 20 20" fill="none" xmlns="http://www.w3.org/2000/svg">
<path d="M11.2273 10.7188C10.5455 10.7188 9.96591 10.4818 9.48864 10.0078C9.01136 9.53385 8.77273 8.95833 8.77273 8.28125C8.77273 7.60417 9.01136 7.02865 9.48864 6.55469C9.96591 6.08073 10.5455 5.84375 11.2273 5.84375C11.9091 5.84375 12.4886 6.08073 12.9659 6.55469C13.4432 7.02865 13.6818 7.60417 13.6818 8.28125C13.6818 8.95833 13.4432 9.53385 12.9659 10.0078C12.4886 10.4818 11.9091 10.7188 11.2273 10.7188ZM4.68182 13.5625C4.34091 13.5625 4.05114 13.444 3.8125 13.207C3.57386 12.9701 3.45455 12.6823 3.45455 12.3438V4.21875C3.45455 3.88021 3.57386 3.59245 3.8125 3.35547C4.05114 3.11849 4.34091 3 4.68182 3H17.7727C18.1136 3 18.4034 3.11849 18.642 3.35547C18.8807 3.59245 19 3.88021 19 4.21875V12.3438C19 12.6823 18.8807 12.9701 18.642 13.207C18.4034 13.444 18.1136 13.5625 17.7727 13.5625H4.68182ZM6.72727 12.3438H15.7273C15.7273 11.775 15.925 11.2943 16.3205 10.9016C16.7159 10.5089 17.2 10.3125 17.7727 10.3125V6.25C17.2 6.25 16.7159 6.05365 16.3205 5.66094C15.925 5.26823 15.7273 4.7875 15.7273 4.21875H6.72727C6.72727 4.7875 6.52955 5.26823 6.13409 5.66094C5.73864 6.05365 5.25455 6.25 4.68182 6.25V10.3125C5.25455 10.3125 5.73864 10.5089 6.13409 10.9016C6.52955 11.2943 6.72727 11.775 6.72727 12.3438ZM16.5455 16H2.22727C1.88636 16 1.59659 15.8815 1.35795 15.6445C1.11932 15.4076 1 15.1198 1 14.7812V5.4375H2.22727V14.7812H16.5455V16ZM4.68182 12.3438V4.21875V12.3438Z" fill="black"/>
</svg>
