<svg width="20" height="20" viewBox="0 0 20 20" fill="none" xmlns="http://www.w3.org/2000/svg">
<path d="M9.46 14H10.66V9.2H9.46V14ZM10 7.72C10.1867 7.72 10.3433 7.66 10.47 7.54C10.5967 7.42 10.66 7.26667 10.66 7.08C10.66 6.89333 10.5967 6.73333 10.47 6.6C10.3433 6.46667 10.1867 6.4 10 6.4C9.81333 6.4 9.65667 6.46667 9.53 6.6C9.40333 6.73333 9.34 6.89333 9.34 7.08C9.34 7.26667 9.40333 7.42 9.53 7.54C9.65667 7.66 9.81333 7.72 10 7.72ZM10 18C8.90667 18 7.87333 17.79 6.9 17.37C5.92667 16.95 5.07667 16.3767 4.35 15.65C3.62333 14.9233 3.05 14.0733 2.63 13.1C2.21 12.1267 2 11.0867 2 9.98C2 8.88667 2.21 7.85333 2.63 6.88C3.05 5.90667 3.62333 5.06 4.35 4.34C5.07667 3.62 5.92667 3.05 6.9 2.63C7.87333 2.21 8.91333 2 10.02 2C11.1133 2 12.1467 2.21 13.12 2.63C14.0933 3.05 14.94 3.62 15.66 4.34C16.38 5.06 16.95 5.90667 17.37 6.88C17.79 7.85333 18 8.89333 18 10C18 11.0933 17.79 12.1267 17.37 13.1C16.95 14.0733 16.38 14.9233 15.66 15.65C14.94 16.3767 14.0933 16.95 13.12 17.37C12.1467 17.79 11.1067 18 10 18ZM10.02 16.8C11.9 16.8 13.5 16.1367 14.82 14.81C16.14 13.4833 16.8 11.8733 16.8 9.98C16.8 8.1 16.14 6.5 14.82 5.18C13.5 3.86 11.8933 3.2 10 3.2C8.12 3.2 6.51667 3.86 5.19 5.18C3.86333 6.5 3.2 8.10667 3.2 10C3.2 11.88 3.86333 13.4833 5.19 14.81C6.51667 16.1367 8.12667 16.8 10.02 16.8Z" fill="black"/>
</svg>
