<svg width="19" height="16" viewBox="0 0 19 16" fill="none" xmlns="http://www.w3.org/2000/svg">
<path d="M1.425 16C1.045 16 0.7125 15.85 0.4275 15.55C0.1425 15.25 0 14.9 0 14.5V1.5C0 1.1 0.1425 0.75 0.4275 0.45C0.7125 0.15 1.045 0 1.425 0H17.575C17.955 0 18.2875 0.15 18.5725 0.45C18.8575 0.75 19 1.1 19 1.5V14.5C19 14.9 18.8575 15.25 18.5725 15.55C18.2875 15.85 17.955 16 17.575 16H1.425ZM9.5 8.45L1.425 2.875V14.5H17.575V2.875L9.5 8.45ZM9.5 6.95L17.48 1.5H1.54375L9.5 6.95ZM1.425 2.875V1.5V14.5V2.875Z" fill="black"/>
</svg>
