<svg width="60" height="60" viewBox="0 0 60 60" fill="none" xmlns="http://www.w3.org/2000/svg">
<path d="M8 40.9474V14.9474C8 13.0772 8.43542 11.4465 9.30625 10.0553C10.1771 8.66404 11.5177 7.52368 13.3281 6.63421C15.1385 5.74474 17.4302 5.08333 20.2031 4.65C22.976 4.21667 26.2417 4 30 4C33.9417 4 37.299 4.20526 40.0719 4.61579C42.8448 5.02632 45.1135 5.67632 46.8781 6.56579C48.6427 7.45526 49.9375 8.58421 50.7625 9.95263C51.5875 11.3211 52 12.986 52 14.9474V40.9474C52 43.6386 51.0719 45.9079 49.2156 47.7553C47.3594 49.6026 45.0792 50.5263 42.375 50.5263L46.5 54.6316V56H41.6875L36.1875 50.5263H23.8125L18.3125 56H13.5V54.6316L17.625 50.5263C14.9208 50.5263 12.6406 49.6026 10.7844 47.7553C8.92812 45.9079 8 43.6386 8 40.9474ZM30 8.10526C24.5 8.10526 20.5354 8.45877 18.1063 9.16579C15.6771 9.87281 13.9354 10.8877 12.8813 12.2105H47.325C46.5 10.9789 44.7469 9.98684 42.0656 9.23421C39.3844 8.48158 35.3625 8.10526 30 8.10526ZM12.125 26.9211H28.2125V16.3158H12.125V26.9211ZM42.375 31.0263H12.125H47.875H42.375ZM32.3375 26.9211H47.875V16.3158H32.3375V26.9211ZM20.0312 42.6579C21.0854 42.6579 21.9792 42.293 22.7125 41.5632C23.4458 40.8333 23.8125 39.9439 23.8125 38.8947C23.8125 37.8456 23.4458 36.9561 22.7125 36.2263C21.9792 35.4965 21.0854 35.1316 20.0312 35.1316C18.9771 35.1316 18.0833 35.4965 17.35 36.2263C16.6167 36.9561 16.25 37.8456 16.25 38.8947C16.25 39.9439 16.6167 40.8333 17.35 41.5632C18.0833 42.293 18.9771 42.6579 20.0312 42.6579ZM39.9688 42.6579C41.0229 42.6579 41.9167 42.293 42.65 41.5632C43.3833 40.8333 43.75 39.9439 43.75 38.8947C43.75 37.8456 43.3833 36.9561 42.65 36.2263C41.9167 35.4965 41.0229 35.1316 39.9688 35.1316C38.9146 35.1316 38.0208 35.4965 37.2875 36.2263C36.5542 36.9561 36.1875 37.8456 36.1875 38.8947C36.1875 39.9439 36.5542 40.8333 37.2875 41.5632C38.0208 42.293 38.9146 42.6579 39.9688 42.6579ZM17.625 46.7632H42.375C43.9333 46.7632 45.2396 46.193 46.2937 45.0526C47.3479 43.9123 47.875 42.5439 47.875 40.9474V31.0263H12.125V40.9474C12.125 42.5439 12.6521 43.9123 13.7062 45.0526C14.7604 46.193 16.0667 46.7632 17.625 46.7632ZM30 12.2105H47.325H12.8813H30Z" fill="#212121"/>
</svg>
