<svg width="125" height="113" viewBox="0 0 125 113" fill="none" xmlns="http://www.w3.org/2000/svg">
<path d="M61.6174 104.43C62.0892 104.43 62.6317 104.312 63.245 104.077C63.8583 103.841 64.3537 103.535 64.7311 103.159L112.428 55.4413C113.655 54.2177 114.575 52.8295 115.188 51.2766C115.801 49.7236 116.108 48.1472 116.108 46.5472C116.108 44.9472 115.801 43.3472 115.188 41.7472C114.575 40.1472 113.655 38.7354 112.428 37.5119L86.952 12.1001C85.7254 10.8766 84.31 9.95892 82.706 9.34716C81.1019 8.73539 79.4978 8.42951 77.8938 8.42951C76.2897 8.42951 74.7093 8.73539 73.1524 9.34716C71.5955 9.95892 70.2038 10.8766 68.9771 12.1001L66.4295 14.6413L77.8938 26.2177C79.1204 27.5354 80.2055 29.0648 81.1491 30.806C82.0926 32.5472 82.5644 34.453 82.5644 36.5236C82.5644 40.1001 81.1727 43.253 78.3892 45.9825C75.6057 48.7119 72.4211 50.0766 68.8356 50.0766C66.4767 50.0766 64.5188 49.7236 62.962 49.0177C61.4051 48.3119 59.9661 47.3001 58.6452 45.9825L48.3132 35.6766L22.6955 61.2295C22.2237 61.7001 21.8935 62.1942 21.7048 62.7119C21.5161 63.2295 21.4217 63.7707 21.4217 64.3354C21.4217 65.5589 21.8227 66.5707 22.6247 67.3707C23.4268 68.1707 24.4411 68.5707 25.6677 68.5707C26.2339 68.5707 26.7764 68.4295 27.2954 68.1472C27.8143 67.8648 28.2625 67.5354 28.6399 67.1589L48.1716 47.6766L54.1161 53.606L34.7259 72.9472C34.2541 73.4177 33.9239 73.9354 33.7352 74.5001C33.5464 75.0648 33.4521 75.6295 33.4521 76.1942C33.4521 77.3236 33.8767 78.3119 34.7259 79.1589C35.5751 80.006 36.5658 80.4295 37.6981 80.4295C38.2643 80.4295 38.8068 80.3119 39.3258 80.0766C39.8447 79.8413 40.2929 79.5354 40.6703 79.1589L60.202 59.6766L66.1465 65.606L46.7563 84.9472C46.3789 85.3236 46.0722 85.8177 45.8363 86.4295C45.6004 87.0413 45.4825 87.6295 45.4825 88.1942C45.4825 89.3236 45.9071 90.3119 46.7563 91.1589C47.6055 92.006 48.5962 92.4295 49.7285 92.4295C50.2946 92.4295 50.8136 92.3354 51.2854 92.1472C51.7572 91.9589 52.229 91.6295 52.7007 91.1589L72.2324 71.6766L78.1769 77.606L58.6452 97.0883C58.1734 97.5589 57.8431 98.0766 57.6544 98.6413C57.4657 99.206 57.3714 99.7236 57.3714 100.194C57.3714 101.512 57.7488 102.547 58.5036 103.3C59.2585 104.053 60.2964 104.43 61.6174 104.43ZM61.6174 112.9C58.5036 112.9 55.7201 111.747 53.2669 109.441C50.8136 107.135 49.3511 104.288 48.8793 100.9C45.6712 100.43 42.9821 99.1119 40.8119 96.9472C38.6417 94.7824 37.3207 92.1001 36.8489 88.9001C33.6408 88.4295 30.9752 87.0883 28.8522 84.8766C26.7292 82.6648 25.4318 80.006 24.96 76.9001C21.4689 76.4295 18.591 75.0177 16.3265 72.6648C14.0619 70.3119 12.9297 67.4883 12.9297 64.1942C12.9297 62.5942 13.2363 60.9942 13.8496 59.3942C14.4629 57.7942 15.3829 56.3825 16.6095 55.1589L48.3132 23.5354L63.8819 39.0648C64.6368 39.8177 65.4624 40.406 66.3588 40.8295C67.2551 41.253 68.1279 41.4648 68.9771 41.4648C70.2038 41.4648 71.3596 40.9236 72.4447 39.8413C73.5298 38.7589 74.0724 37.606 74.0724 36.3825C74.0724 35.8177 73.9073 35.1825 73.577 34.4766C73.2468 33.7707 72.7042 33.0413 71.9494 32.2883L51.71 12.1001C50.4834 10.8766 49.068 9.95892 47.464 9.34716C45.8599 8.73539 44.2559 8.42951 42.6518 8.42951C41.0478 8.42951 39.4673 8.73539 37.9104 9.34716C36.3535 9.95892 34.9618 10.8766 33.7352 12.1001L12.222 33.5589C10.901 34.8766 9.98102 36.2648 9.46207 37.7236C8.94311 39.1824 8.63645 40.806 8.54209 42.5942C8.44774 44.4766 8.80157 46.2883 9.6036 48.0295C10.4056 49.7707 11.3728 51.3472 12.505 52.7589L6.41908 58.8295C4.53196 56.7589 2.99868 54.2648 1.81922 51.3472C0.639774 48.4295 0.0500488 45.4648 0.0500488 42.453C0.0500488 39.6295 0.592596 36.9236 1.67769 34.3354C2.76279 31.7472 4.29607 29.4648 6.27755 27.4883L27.6492 6.17068C29.725 4.1001 32.0839 2.57068 34.7259 1.58245C37.3679 0.594214 40.057 0.100098 42.7933 0.100098C45.5297 0.100098 48.1952 0.594214 50.79 1.58245C53.3848 2.57068 55.7201 4.1001 57.796 6.17068L60.3436 8.71186L62.8912 6.17068C64.967 4.1001 67.3259 2.57068 69.9679 1.58245C72.6099 0.594214 75.299 0.100098 78.0353 0.100098C80.7717 0.100098 83.4372 0.594214 86.032 1.58245C88.6268 2.57068 90.9621 4.1001 93.0379 6.17068L118.373 31.4413C120.448 33.5119 122.005 35.8648 123.043 38.5001C124.081 41.1354 124.6 43.8177 124.6 46.5472C124.6 49.2766 124.081 51.9354 123.043 54.5236C122.005 57.1119 120.448 59.4413 118.373 61.5119L70.6756 109.088C69.4489 110.312 68.0572 111.253 66.5003 111.912C64.9434 112.571 63.3158 112.9 61.6174 112.9Z" fill="white"/>
</svg>
