<svg width="60" height="60" viewBox="0 0 60 60" fill="none" xmlns="http://www.w3.org/2000/svg">
<path d="M24.6155 40.6385C25.676 41.6943 27.2091 42.1878 29.2147 42.1189C31.2204 42.0501 32.6843 41.3041 33.6064 39.8811L48.5451 16.5383L25.3763 31.6182C23.9931 32.5363 23.2554 34.0052 23.1632 36.025C23.0709 38.0449 23.5551 39.5827 24.6155 40.6385ZM29.5259 8C32.154 8 34.8974 8.42462 37.7561 9.27387C40.6147 10.1231 43.3581 11.5806 45.9862 13.6463L42.3898 16.1941C40.315 14.8169 38.0903 13.7955 35.7158 13.1299C33.3413 12.4643 31.278 12.1315 29.5259 12.1315C23.0709 12.1315 17.5611 14.4267 12.9965 19.0172C8.43194 23.6077 6.14964 29.1852 6.14964 35.7496C6.14964 37.8153 6.43781 39.904 7.01415 42.0156C7.59049 44.1273 8.40889 46.0782 9.46935 47.8685H49.5134C50.5277 46.216 51.3346 44.2879 51.934 42.0845C52.5334 39.8811 52.8331 37.7235 52.8331 35.6119C52.8331 33.6839 52.5449 31.6067 51.9686 29.3803C51.3922 27.1539 50.3663 25.0996 48.8909 23.2175L51.5882 19.6369C53.3402 22.2076 54.6543 24.7898 55.5303 27.3834C56.4064 29.977 56.8905 32.5822 56.9827 35.1987C57.0749 37.9531 56.7983 40.5467 56.1528 42.9797C55.5073 45.4126 54.5621 47.662 53.3172 49.7277C52.7639 50.7835 52.176 51.4262 51.5536 51.6557C50.9312 51.8852 50.1589 52 49.2367 52H9.74599C8.96217 52 8.18988 51.8049 7.42911 51.4147C6.66834 51.0245 6.10353 50.4622 5.73467 49.7277C4.53589 47.5243 3.61375 45.2864 2.96825 43.0141C2.32275 40.7418 2 38.3203 2 35.7496C2 31.9395 2.72619 28.3474 4.17856 24.9734C5.63093 21.5994 7.60201 18.6615 10.0918 16.1596C12.5816 13.6578 15.4979 11.6724 18.8406 10.2034C22.1834 8.73448 25.7452 8 29.5259 8Z" fill="#212121"/>
</svg>
