<svg width="42" height="55" viewBox="0 0 42 55" fill="none" xmlns="http://www.w3.org/2000/svg">
<path d="M3.9375 55C2.84375 55 1.91406 54.6181 1.14844 53.8542C0.382813 53.0903 0 52.1627 0 51.0714V22.6548C0 21.5635 0.382813 20.6359 1.14844 19.872C1.91406 19.1081 2.84375 18.7262 3.9375 18.7262H8.53125V12.4405C8.53125 8.99206 9.74531 6.05655 12.1734 3.63393C14.6016 1.21131 17.5438 0 21 0C24.4562 0 27.3984 1.21131 29.8266 3.63393C32.2547 6.05655 33.4688 8.99206 33.4688 12.4405V18.7262H38.0625C39.1562 18.7262 40.0859 19.1081 40.8516 19.872C41.6172 20.6359 42 21.5635 42 22.6548V51.0714C42 52.1627 41.6172 53.0903 40.8516 53.8542C40.0859 54.6181 39.1562 55 38.0625 55H3.9375ZM3.9375 51.0714H38.0625V22.6548H3.9375V51.0714ZM21 41.9048C22.4 41.9048 23.5922 41.4246 24.5766 40.4643C25.5609 39.504 26.0531 38.3472 26.0531 36.994C26.0531 35.6845 25.5609 34.495 24.5766 33.4256C23.5922 32.3562 22.4 31.8214 21 31.8214C19.6 31.8214 18.4078 32.3562 17.4234 33.4256C16.4391 34.495 15.9469 35.6845 15.9469 36.994C15.9469 38.3472 16.4391 39.504 17.4234 40.4643C18.4078 41.4246 19.6 41.9048 21 41.9048ZM12.4688 18.7262H29.5312V12.4405C29.5312 10.0833 28.7 8.0754 27.0375 6.41667C25.375 4.75794 23.3625 3.92857 21 3.92857C18.6375 3.92857 16.625 4.75794 14.9625 6.41667C13.3 8.0754 12.4688 10.0833 12.4688 12.4405V18.7262Z" fill="#212121"/>
</svg>
