<svg width="55" height="44" viewBox="0 0 55 44" fill="none" xmlns="http://www.w3.org/2000/svg">
<path d="M22.6155 32.6385C23.676 33.6943 25.2091 34.1878 27.2147 34.1189C29.2204 34.0501 30.6843 33.3041 31.6064 31.8811L46.5451 8.53834L23.3763 23.6182C21.9931 24.5363 21.2554 26.0052 21.1632 28.025C21.0709 30.0449 21.5551 31.5827 22.6155 32.6385ZM27.5259 0C30.154 0 32.8974 0.424622 35.7561 1.27387C38.6147 2.12311 41.3581 3.58059 43.9862 5.64632L40.3898 8.19405C38.315 6.8169 36.0903 5.79551 33.7158 5.12989C31.3413 4.46427 29.278 4.13146 27.5259 4.13146C21.0709 4.13146 15.5611 6.42671 10.9965 11.0172C6.43194 15.6077 4.14964 21.1852 4.14964 27.7496C4.14964 29.8153 4.43781 31.904 5.01415 34.0156C5.59049 36.1273 6.40889 38.0782 7.46935 39.8685H47.5134C48.5277 38.216 49.3346 36.2879 49.934 34.0845C50.5334 31.8811 50.8331 29.7235 50.8331 27.6119C50.8331 25.6839 50.5449 23.6067 49.9686 21.3803C49.3922 19.1539 48.3663 17.0996 46.8909 15.2175L49.5882 11.6369C51.3402 14.2076 52.6543 16.7898 53.5303 19.3834C54.4064 21.977 54.8905 24.5822 54.9827 27.1987C55.0749 29.9531 54.7983 32.5467 54.1528 34.9797C53.5073 37.4126 52.5621 39.662 51.3172 41.7277C50.7639 42.7835 50.176 43.4262 49.5536 43.6557C48.9312 43.8852 48.1589 44 47.2367 44H7.74599C6.96217 44 6.18988 43.8049 5.42911 43.4147C4.66834 43.0245 4.10353 42.4622 3.73467 41.7277C2.53589 39.5243 1.61375 37.2864 0.968249 35.0141C0.322749 32.7418 0 30.3203 0 27.7496C0 23.9395 0.726187 20.3474 2.17856 16.9734C3.63093 13.5994 5.60201 10.6615 8.09179 8.15962C10.5816 5.6578 13.4979 3.6724 16.8406 2.20344C20.1834 0.73448 23.7452 0 27.5259 0Z" fill="#212121"/>
</svg>
