<svg width="44" height="52" viewBox="0 0 44 52" fill="none" xmlns="http://www.w3.org/2000/svg">
<path d="M0 36.9474V10.9474C0 9.07719 0.435416 7.44649 1.30625 6.05526C2.17708 4.66404 3.51771 3.52368 5.32812 2.63421C7.13854 1.74474 9.43021 1.08333 12.2031 0.65C14.976 0.216667 18.2417 0 22 0C25.9417 0 29.299 0.205263 32.0719 0.615789C34.8448 1.02632 37.1135 1.67632 38.8781 2.56579C40.6427 3.45526 41.9375 4.58421 42.7625 5.95263C43.5875 7.32105 44 8.98596 44 10.9474V36.9474C44 39.6386 43.0719 41.9079 41.2156 43.7553C39.3594 45.6026 37.0792 46.5263 34.375 46.5263L38.5 50.6316V52H33.6875L28.1875 46.5263H15.8125L10.3125 52H5.5V50.6316L9.625 46.5263C6.92083 46.5263 4.64062 45.6026 2.78437 43.7553C0.928124 41.9079 0 39.6386 0 36.9474ZM22 4.10526C16.5 4.10526 12.5354 4.45877 10.1063 5.16579C7.67708 5.87281 5.93542 6.88772 4.88125 8.21053H39.325C38.5 6.97895 36.7469 5.98684 34.0656 5.23421C31.3844 4.48158 27.3625 4.10526 22 4.10526ZM4.125 22.9211H20.2125V12.3158H4.125V22.9211ZM34.375 27.0263H4.125H39.875H34.375ZM24.3375 22.9211H39.875V12.3158H24.3375V22.9211ZM12.0312 38.6579C13.0854 38.6579 13.9792 38.293 14.7125 37.5632C15.4458 36.8333 15.8125 35.9439 15.8125 34.8947C15.8125 33.8456 15.4458 32.9561 14.7125 32.2263C13.9792 31.4965 13.0854 31.1316 12.0312 31.1316C10.9771 31.1316 10.0833 31.4965 9.35 32.2263C8.61667 32.9561 8.25 33.8456 8.25 34.8947C8.25 35.9439 8.61667 36.8333 9.35 37.5632C10.0833 38.293 10.9771 38.6579 12.0312 38.6579ZM31.9688 38.6579C33.0229 38.6579 33.9167 38.293 34.65 37.5632C35.3833 36.8333 35.75 35.9439 35.75 34.8947C35.75 33.8456 35.3833 32.9561 34.65 32.2263C33.9167 31.4965 33.0229 31.1316 31.9688 31.1316C30.9146 31.1316 30.0208 31.4965 29.2875 32.2263C28.5542 32.9561 28.1875 33.8456 28.1875 34.8947C28.1875 35.9439 28.5542 36.8333 29.2875 37.5632C30.0208 38.293 30.9146 38.6579 31.9688 38.6579ZM9.625 42.7632H34.375C35.9333 42.7632 37.2396 42.193 38.2937 41.0526C39.3479 39.9123 39.875 38.5439 39.875 36.9474V27.0263H4.125V36.9474C4.125 38.5439 4.65208 39.9123 5.70625 41.0526C6.76042 42.193 8.06667 42.7632 9.625 42.7632ZM22 8.21053H39.325H4.88125H22Z" fill="#212121"/>
</svg>
