<svg width="60" height="60" viewBox="0 0 60 60" fill="none" xmlns="http://www.w3.org/2000/svg">
<path d="M12.9375 57C11.8438 57 10.9141 56.6181 10.1484 55.8542C9.38281 55.0903 9 54.1627 9 53.0714V24.6548C9 23.5635 9.38281 22.6359 10.1484 21.872C10.9141 21.1081 11.8438 20.7262 12.9375 20.7262H17.5312V14.4405C17.5312 10.9921 18.7453 8.05655 21.1734 5.63393C23.6016 3.21131 26.5438 2 30 2C33.4562 2 36.3984 3.21131 38.8266 5.63393C41.2547 8.05655 42.4688 10.9921 42.4688 14.4405V20.7262H47.0625C48.1562 20.7262 49.0859 21.1081 49.8516 21.872C50.6172 22.6359 51 23.5635 51 24.6548V53.0714C51 54.1627 50.6172 55.0903 49.8516 55.8542C49.0859 56.6181 48.1562 57 47.0625 57H12.9375ZM12.9375 53.0714H47.0625V24.6548H12.9375V53.0714ZM30 43.9048C31.4 43.9048 32.5922 43.4246 33.5766 42.4643C34.5609 41.504 35.0531 40.3472 35.0531 38.994C35.0531 37.6845 34.5609 36.495 33.5766 35.4256C32.5922 34.3562 31.4 33.8214 30 33.8214C28.6 33.8214 27.4078 34.3562 26.4234 35.4256C25.4391 36.495 24.9469 37.6845 24.9469 38.994C24.9469 40.3472 25.4391 41.504 26.4234 42.4643C27.4078 43.4246 28.6 43.9048 30 43.9048ZM21.4688 20.7262H38.5312V14.4405C38.5312 12.0833 37.7 10.0754 36.0375 8.41667C34.375 6.75794 32.3625 5.92857 30 5.92857C27.6375 5.92857 25.625 6.75794 23.9625 8.41667C22.3 10.0754 21.4688 12.0833 21.4688 14.4405V20.7262Z" fill="#212121"/>
</svg>
