<svg width="20" height="20" viewBox="0 0 20 20" fill="none" xmlns="http://www.w3.org/2000/svg">
<path d="M3.2 16C2.88 16 2.6 15.8781 2.36 15.6344C2.12 15.3906 2 15.1063 2 14.7812V4.21875C2 3.89375 2.12 3.60937 2.36 3.36562C2.6 3.12187 2.88 3 3.2 3H16.8C17.12 3 17.4 3.12187 17.64 3.36562C17.88 3.60937 18 3.89375 18 4.21875V14.7812C18 15.1063 17.88 15.3906 17.64 15.6344C17.4 15.8781 17.12 16 16.8 16H3.2ZM10 9.86562L3.2 5.33594V14.7812H16.8V5.33594L10 9.86562ZM10 8.64687L16.72 4.21875H3.3L10 8.64687ZM3.2 5.33594V4.21875V14.7812V5.33594Z" fill="black"/>
</svg>
